<svg width="188" height="65" viewBox="0 0 188 65" fill="none" xmlns="http://www.w3.org/2000/svg">
  <path d="M66.2032 56.7342C65.6089 56.7342 64.9237 56.6434 64.1478 56.4618L61.6961 55.7932L62.3648 53.7873C63.7516 54.2826 64.9072 54.5302 65.8318 54.5302C66.3271 54.5302 66.7398 54.4146 67.07 54.1835C67.4002 53.9524 67.5653 53.6387 67.5653 53.2425C67.5653 52.8462 67.458 52.5491 67.2433 52.3509C67.0287 52.1528 66.6325 51.9795 66.0546 51.8309L64.7174 51.4842C62.8683 51.0054 61.9438 49.9158 61.9438 48.2153C61.9438 47.1917 62.3317 46.3497 63.1077 45.6893C63.9002 45.029 64.932 44.6988 66.2032 44.6988C66.715 44.6988 67.3176 44.7896 68.011 44.9712L70.4627 45.6398L69.7941 47.6457C68.4568 47.1504 67.4415 46.9028 66.7481 46.9028C66.2858 46.9028 65.8978 47.0266 65.5841 47.2743C65.2704 47.5054 65.1136 47.8108 65.1136 48.1905C65.1136 48.5868 65.2209 48.8839 65.4355 49.0821C65.6502 49.2802 66.0464 49.4535 66.6242 49.6021L67.9367 49.9488C68.9273 50.213 69.6372 50.6174 70.0665 51.1623C70.4957 51.6906 70.7103 52.3757 70.7103 53.2177C70.7103 54.2248 70.3306 55.0668 69.5712 55.7437C68.8117 56.404 67.6891 56.7342 66.2032 56.7342ZM76.7946 56.7342C75.5564 56.7342 74.6814 56.4288 74.1696 55.818C73.6743 55.2071 73.4267 54.2743 73.4267 53.0196V47.1009H71.5941V44.9217H73.4267V42.0242L76.5717 41.4051V44.9217H79.2958V47.1009H76.5717V53.0691C76.5717 54.0432 76.968 54.5302 77.7604 54.5302C78.2392 54.5302 78.751 54.3816 79.2958 54.0844L79.7911 55.9418C78.8831 56.4701 77.8843 56.7342 76.7946 56.7342ZM84.5056 56.7342C83.383 56.7342 82.4914 56.3875 81.8311 55.6941C81.1707 55.0007 80.8405 54.1753 80.8405 53.2177C80.8405 52.5078 81.0716 51.9382 81.5339 51.509C82.0127 51.0632 82.7556 50.7165 83.7627 50.4689L87.7497 49.4783V48.4629C87.7497 47.9842 87.6012 47.6045 87.304 47.3238C87.0233 47.0431 86.6271 46.9028 86.1153 46.9028C85.5375 46.9028 84.2332 47.3403 82.2025 48.2153L81.3358 46.2094L84.1589 45.1693C85.0174 44.8556 85.6448 44.6988 86.041 44.6988C87.5434 44.6988 88.7238 45.095 89.5823 45.8875C90.4573 46.6634 90.8948 47.687 90.8948 48.9582V53.2177C90.8948 53.5314 90.9443 54.0019 91.0434 54.6293C91.159 55.2401 91.3075 55.7602 91.4892 56.1894L88.7898 56.7342C88.4597 56.371 88.113 55.8675 87.7497 55.2236C86.6436 56.2307 85.5622 56.7342 84.5056 56.7342ZM85.62 54.5302C86.2639 54.5302 86.9738 54.1587 87.7497 53.4158V50.9146L85.2733 51.6328C84.4809 51.8639 84.0846 52.3014 84.0846 52.9453C84.0846 53.4406 84.225 53.8286 84.5056 54.1092C84.7863 54.3899 85.1577 54.5302 85.62 54.5302ZM97.4361 56.7342C96.1979 56.7342 95.3228 56.4288 94.8111 55.818C94.3158 55.2071 94.0681 54.2743 94.0681 53.0196V47.1009H92.2356V44.9217H94.0681V42.0242L97.2132 41.4051V44.9217H99.9373V47.1009H97.2132V53.0691C97.2132 54.0432 97.6094 54.5302 98.4019 54.5302C98.8807 54.5302 99.3925 54.3816 99.9373 54.0844L100.433 55.9418C99.5245 56.4701 98.5257 56.7342 97.4361 56.7342ZM132.412 56.5114H129.267V49.7507C129.267 48.7601 129.119 48.042 128.822 47.5962C128.541 47.1339 128.087 46.9028 127.46 46.9028C126.832 46.9028 126.155 47.2743 125.429 48.0172V56.5114H122.284V49.7507C122.284 48.7601 122.143 48.042 121.863 47.5962C121.582 47.1339 121.12 46.9028 120.476 46.9028C119.865 46.9028 119.188 47.2743 118.445 48.0172V56.5114H115.3V48.2153C115.3 47.9016 115.242 47.4394 115.127 46.8285C115.028 46.2011 114.887 45.6728 114.706 45.2436L117.38 44.6988C117.727 45.0455 118.082 45.549 118.445 46.2094C119.485 45.2023 120.567 44.6988 121.689 44.6988C123.357 44.6988 124.488 45.2849 125.082 46.457C125.445 45.9783 125.965 45.5655 126.642 45.2188C127.319 44.8721 127.996 44.6988 128.673 44.6988C129.928 44.6988 130.86 45.062 131.471 45.7884C132.099 46.5148 132.412 47.6457 132.412 49.1811V56.5114ZM138.122 56.7342C137 56.7342 136.108 56.3875 135.448 55.6941C134.787 55.0007 134.457 54.1753 134.457 53.2177C134.457 52.5078 134.688 51.9382 135.151 51.509C135.629 51.0632 136.372 50.7165 137.379 50.4689L141.366 49.4783V48.4629C141.366 47.9842 141.218 47.6045 140.921 47.3238C140.64 47.0431 140.244 46.9028 139.732 46.9028C139.154 46.9028 137.85 47.3403 135.819 48.2153L134.952 46.2094L137.776 45.1693C138.634 44.8556 139.261 44.6988 139.658 44.6988C141.16 44.6988 142.34 45.095 143.199 45.8875C144.074 46.6634 144.511 47.687 144.511 48.9582V53.2177C144.511 53.5314 144.561 54.0019 144.66 54.6293C144.776 55.2401 144.924 55.7602 145.106 56.1894L142.407 56.7342C142.076 56.371 141.73 55.8675 141.366 55.2236C140.26 56.2307 139.179 56.7342 138.122 56.7342ZM139.237 54.5302C139.881 54.5302 140.59 54.1587 141.366 53.4158V50.9146L138.89 51.6328C138.098 51.8639 137.701 52.3014 137.701 52.9453C137.701 53.4406 137.842 53.8286 138.122 54.1092C138.403 54.3899 138.774 54.5302 139.237 54.5302ZM150.477 56.5114H147.332V48.2153C147.332 47.9016 147.275 47.4394 147.159 46.8285C147.06 46.2011 146.92 45.6728 146.738 45.2436L149.413 44.6988C149.924 45.2106 150.279 45.904 150.477 46.779C150.808 46.1186 151.245 45.6068 151.79 45.2436C152.351 44.8804 152.954 44.6988 153.598 44.6988C153.961 44.6988 154.291 44.7566 154.588 44.8721L154.043 47.5714H153.226C152.45 47.5714 151.839 47.7613 151.394 48.141C150.964 48.5042 150.659 49.1151 150.477 49.9736V56.5114ZM166.831 56.5114H162.968L159.129 50.5184V56.5114H155.984V39.9688L159.129 39.3497V49.6516L163.042 44.9217H166.583L161.928 50.0974L166.831 56.5114ZM172.468 56.7342C170.603 56.7342 169.191 56.1812 168.234 55.075C167.293 53.9524 166.822 52.483 166.822 50.667C166.822 48.8509 167.309 47.4063 168.283 46.3332C169.257 45.2436 170.611 44.6988 172.344 44.6988C175.696 44.6988 177.372 46.4405 177.372 49.924C177.372 50.2873 177.33 50.5927 177.248 50.8403H170.066C170.066 52.0785 170.289 53.0031 170.735 53.6139C171.197 54.2248 171.833 54.5302 172.642 54.5302C173.55 54.5302 174.738 54.2 176.208 53.5396L177.074 55.5455L174.449 56.5114C174.004 56.6599 173.343 56.7342 172.468 56.7342ZM172.171 46.9028C171.511 46.9028 170.991 47.1339 170.611 47.5962C170.248 48.0585 170.066 48.6363 170.066 49.3297H174.103C174.103 47.7118 173.459 46.9028 172.171 46.9028ZM183.539 56.7342C182.3 56.7342 181.425 56.4288 180.913 55.818C180.418 55.2071 180.171 54.2743 180.171 53.0196V47.1009H178.338V44.9217H180.171V42.0242L183.316 41.4051V44.9217H186.04V47.1009H183.316V53.0691C183.316 54.0432 183.712 54.5302 184.504 54.5302C184.983 54.5302 185.495 54.3816 186.04 54.0844L186.535 55.9418C185.627 56.4701 184.628 56.7342 183.539 56.7342Z" fill="#54618E"/>
  <path d="M111.71 56.5114H108.713V52.6976H101.952L101.284 50.766L108.342 40.6622H111.71V50.3698H113.295V52.6976H111.71V56.5114ZM108.713 50.3698V43.9311L104.33 50.3698H108.713Z" fill="#D653D2"/>
  <mask id="mask0_1511_12186" style="mask-type:alpha" maskUnits="userSpaceOnUse" x="0" y="0" width="47" height="20">
    <ellipse cx="23.4745" cy="10.3197" rx="23.4745" ry="9.32632" fill="url(#paint0_linear_1511_12186)"/>
  </mask>
  <g mask="url(#mask0_1511_12186)">
    <ellipse cx="23.4745" cy="10.3197" rx="23.4745" ry="9.32632" fill="url(#paint1_linear_1511_12186)"/>
    <path d="M30.9399 12.9082V2.54196C30.9399 2.38342 30.9517 2.21088 30.9751 2.02435C31.0221 1.83783 31.069 1.64664 31.116 1.45078L9.56638 12.9082H30.9399ZM50.8875 12.9082V13.6356C50.8875 13.7382 50.8054 13.8222 50.6411 13.8874C50.5002 13.9434 50.2655 13.9714 49.9368 13.9714H33.8977V19.6511H30.9399V13.9714H7.38325C7.03113 13.9714 6.76117 13.9434 6.57338 13.8874C6.38558 13.8222 6.25647 13.7382 6.18605 13.6356L5.86914 12.9781L30.9047 -0.171997H33.8977V12.9082H50.8875Z" fill="white"/>
  </g>
  <defs>
    <linearGradient id="paint0_linear_1511_12186" x1="53.9914" y1="-4.60239" x2="45.3843" y2="28.051" gradientUnits="userSpaceOnUse">
      <stop stop-color="#FF00AA"/>
      <stop offset="1" stop-color="#8912DE"/>
    </linearGradient>
    <linearGradient id="paint1_linear_1511_12186" x1="53.9914" y1="-4.60239" x2="45.3843" y2="28.051" gradientUnits="userSpaceOnUse">
      <stop stop-color="#FF00AA"/>
      <stop offset="1" stop-color="#8912DE"/>
    </linearGradient>
  </defs>
</svg>
